<svg width="1920" height="1080" viewBox="0 0 1920 1080" fill="none" xmlns="http://www.w3.org/2000/svg">
<g clip-path="url(#clip0_1_30)">
<rect width="1920" height="1080" fill="white"/>
<ellipse cx="1810" cy="198.5" rx="64" ry="69.5" fill="#B7CADB"/>
<ellipse cx="1874" cy="229.5" rx="64" ry="69.5" fill="#B7CADB"/>
<ellipse cx="1940" cy="267.5" rx="64" ry="69.5" fill="#B7CADB"/>
<ellipse cx="1920" cy="311.5" rx="64" ry="69.5" fill="#B7CADB"/>
<ellipse cx="1796.5" cy="73.5" rx="143.5" ry="141.5" fill="#B7CADB"/>
<ellipse cx="1828.5" cy="64.5" rx="143.5" ry="141.5" fill="#FF7D7D"/>
<ellipse cx="1829" cy="187.5" rx="64" ry="69.5" fill="#FF7D7D"/>
<ellipse cx="1893" cy="215.5" rx="64" ry="69.5" fill="#FF7D7D"/>
<ellipse cx="1948" cy="256.5" rx="64" ry="69.5" fill="#FF7D7D"/>
<ellipse cx="1948" cy="298.5" rx="64" ry="69.5" fill="#FF7D7D"/>
<ellipse cx="119.51" cy="928.811" rx="64" ry="69.5" transform="rotate(177.255 119.51 928.811)" fill="#B7CADB"/>
<ellipse cx="54.0982" cy="900.912" rx="64" ry="69.5" transform="rotate(177.255 54.0982 900.912)" fill="#B7CADB"/>
<ellipse cx="-13.6462" cy="866.117" rx="64" ry="69.5" transform="rotate(177.255 -13.6462 866.117)" fill="#B7CADB"/>
<ellipse cx="4.22334" cy="821.209" rx="64" ry="69.5" transform="rotate(177.255 4.22334 821.209)" fill="#B7CADB"/>
<ellipse cx="138.981" cy="1053.02" rx="143.5" ry="141.5" transform="rotate(177.255 138.981 1053.02)" fill="#B7CADB"/>
<ellipse cx="107.449" cy="1063.54" rx="143.5" ry="141.5" transform="rotate(177.255 107.449 1063.54)" fill="#FF7D7D"/>
<ellipse cx="101.058" cy="940.708" rx="64" ry="69.5" transform="rotate(177.255 101.058 940.708)" fill="#FF7D7D"/>
<ellipse cx="35.7906" cy="915.806" rx="64" ry="69.5" transform="rotate(177.255 35.7906 915.806)" fill="#FF7D7D"/>
<ellipse cx="-21.1101" cy="877.487" rx="64" ry="69.5" transform="rotate(177.255 -21.1101 877.487)" fill="#FF7D7D"/>
<ellipse cx="-23.1219" cy="835.535" rx="64" ry="69.5" transform="rotate(177.255 -23.1219 835.535)" fill="#FF7D7D"/>
</g>
<defs>
<clipPath id="clip0_1_30">
<rect width="1920" height="1080" fill="white"/>
</clipPath>
</defs>
</svg>
