<svg width="200" height="167" viewBox="0 0 200 167" fill="none" xmlns="http://www.w3.org/2000/svg">
<path d="M180.425 142.712C170.604 156.057 151.825 158.913 138.481 149.092L82.1039 107.599L117.669 59.2759L174.046 100.768C187.39 110.589 190.246 129.368 180.425 142.712V142.712Z" fill="#8EBADF"/>
<path d="M19.3478 24.1625C29.1688 10.8184 47.9478 7.96238 61.2918 17.7834L117.669 59.2759L82.1039 107.599L25.7269 66.1066C12.3828 56.2856 9.52676 37.5065 19.3478 24.1625V24.1625Z" fill="#403C56"/>
<path d="M0 125C0 108.431 13.4315 95 30 95H100V155H30C13.4315 155 0 141.569 0 125V125Z" fill="#F17583"/>
<path d="M200 125C200 141.569 186.569 155 170 155L100 155L100 95L170 95C186.569 95 200 108.431 200 125V125Z" fill="#403C56"/>
</svg>
